# xmcd
#
# Track frame offsets:
#	150
#	18063
#	32290
#	48234
#	61990
#	74941
#	90089
#	110076
#	124529
#	144797
#	150517
#	164691
#	179402
#
# Disc length: 2684 seconds
#
# Revision: 1
# Processed by: cddbd v1.5.2PL0 Copyright (c) Steve Scherf et al.
# Submitted via: audiograbber 1.81.03
#
DISCID=a00a7a0d
DTITLE=Cam`Penner And The Gravel Road - Felt Like a Sunday Night
DYEAR=2005
DGENRE=Country
TTITLE0=Rye Whiskey
TTITLE1=I've Got You
TTITLE2=Tried And True
TTITLE3=Eight Days
TTITLE4=October
TTITLE5=No Stars In The City
TTITLE6=Manitoba
TTITLE7=Be Kind
TTITLE8=Downtown
TTITLE9=In A Dusty Room
TTITLE10=Walk On
TTITLE11=Lonesome As Me
TTITLE12=Last Train Home
EXTD=
EXTT0=
EXTT1=
EXTT2=
EXTT3=
EXTT4=
EXTT5=
EXTT6=
EXTT7=
EXTT8=
EXTT9=
EXTT10=
EXTT11=
EXTT12=
PLAYORDER=
